<svg xmlns="http://www.w3.org/2000/svg" width="168" height="361" viewBox="0 0 168 361" fill="none">
    <path d="M0.592604 180.708C0.592604 130.425 0.585762 80.1428 0.61119 29.8604C0.612885 26.381 0.794406 22.8972 1.02904 19.4247C1.13598 17.8413 1.44294 16.2418 1.88721 14.716C3.8992 7.80379 8.4724 3.47356 15.4106 1.64097C18.2484 0.891433 21.1693 0.677704 24.0861 0.603683C27.6621 0.512993 31.2417 0.559751 34.8197 0.550851C35.196 0.549862 35.5738 0.557632 35.9485 0.589274C37.739 0.740707 38.9246 1.53502 39.0087 3.57964C39.0511 4.60944 39.2014 5.64461 39.407 6.65604C40.243 10.7669 43.4093 13.6228 47.6015 14.044C48.723 14.1568 49.858 14.172 50.9867 14.1723C72.9265 14.1795 94.8662 14.1792 116.806 14.1739C117.841 14.1736 118.88 14.1568 119.91 14.0699C124.295 13.7002 127.429 10.9723 128.397 6.65844C128.602 5.7466 128.704 4.79887 128.735 3.86372C128.814 1.43345 130.172 0.652701 132.125 0.569215C132.219 0.56526 132.313 0.559186 132.407 0.559609C137.959 0.584472 143.521 0.313814 149.054 1.01998C149.892 1.12706 150.726 1.28301 151.551 1.46764C159.982 3.35589 165.392 9.16994 166.57 17.7369C166.902 20.1556 167.012 22.6089 167.137 25.0506C167.223 26.7413 167.166 28.4396 167.166 30.1346C167.168 130.511 167.17 230.888 167.166 331.265C167.166 335.123 167.295 338.992 166.645 342.819C166.425 344.116 166.223 345.431 165.829 346.68C163.474 354.145 158.268 358.406 150.673 359.767C148.277 360.197 145.808 360.38 143.371 360.395C131.225 360.467 119.078 360.452 106.931 360.455C80.848 360.46 54.7651 360.464 28.6823 360.452C25.0133 360.451 21.3319 360.577 17.6989 359.875C16.5917 359.661 15.4691 359.475 14.3976 359.137C7.64278 357.001 3.43572 352.432 1.67433 345.603C0.86984 342.483 0.749909 339.275 0.642408 336.075C0.579123 334.194 0.599889 332.309 0.599889 330.426C0.598052 280.52 0.598476 230.614 0.598476 180.708H0.592604Z" fill="white"/>
</svg>